<svg width="40" height="40" viewBox="0 0 40 40" fill="none" xmlns="http://www.w3.org/2000/svg">
  <!-- Background Circle -->
  <circle cx="20" cy="20" r="20" fill="url(#gradient1)"/>
  
  <!-- Briefcase Icon -->
  <path d="M12 16C12 14.8954 12.8954 14 14 14H26C27.1046 14 28 14.8954 28 16V28C28 29.1046 27.1046 30 26 30H14C12.8954 30 12 29.1046 12 28V16Z" fill="white"/>
  
  <!-- Briefcase Handle -->
  <path d="M16 14C16 12.8954 16.8954 12 18 12H22C23.1046 12 24 12.8954 24 14V16H16V14Z" fill="white"/>
  
  <!-- Skill Lines -->
  <path d="M16 18H24" stroke="url(#gradient2)" stroke-width="2" stroke-linecap="round"/>
  <path d="M16 21H22" stroke="url(#gradient2)" stroke-width="2" stroke-linecap="round"/>
  <path d="M16 24H20" stroke="url(#gradient2)" stroke-width="2" stroke-linecap="round"/>
  
  <!-- Gradients -->
  <defs>
    <linearGradient id="gradient1" x1="0%" y1="0%" x2="100%" y2="100%">
      <stop offset="0%" style="stop-color:#3B82F6;stop-opacity:1" />
      <stop offset="100%" style="stop-color:#8B5CF6;stop-opacity:1" />
    </linearGradient>
    <linearGradient id="gradient2" x1="0%" y1="0%" x2="100%" y2="0%">
      <stop offset="0%" style="stop-color:#3B82F6;stop-opacity:1" />
      <stop offset="100%" style="stop-color:#8B5CF6;stop-opacity:1" />
    </linearGradient>
  </defs>
</svg>
